<?xml version="1.0" encoding="UTF-8"?>
<svg id="Layer_2" data-name="Layer 2" xmlns="http://www.w3.org/2000/svg" viewBox="0 0 1366 768">
  <defs>
    <style>
      .cls-1 {
        font-size: 102px;
        letter-spacing: 0em;
      }

      .cls-1, .cls-2, .cls-3 {
        fill: #d7b56b;
      }

      .cls-1, .cls-3 {
        font-family: MyriadPro-Regular, 'Myriad Pro';
      }

      .cls-3 {
        font-size: 148px;
        letter-spacing: 0em;
      }
    </style>
  </defs>
  <g>
    <path class="cls-2" d="M446.19,252.59l-67.64-67.51-200.75,199.49,123.04,123.77c11.27-41.14,33.39-101.46,79.68-161.45,55.36-71.75,121-111.57,123.41-108.81,2.7,3.08-78.41,54.66-130.81,152.07-37.03,68.84-47.05,137.01-49.13,187.16-64.72-64.26-129.43-128.53-194.15-192.79l248.09-248.43,92.84,92.84c-8.2,7.89-16.39,15.77-24.59,23.66Z"/>
    <path class="cls-2" d="M378.11,631.91l-16.39-15.89c-1.38-37.83.21-132.77,58.83-232.19,59.01-100.07,142.06-147.46,175.85-164.44-32.16,19.43-108.8,71.62-158.96,172.44-48.32,97.13-45.62,186.22-42.33,223.8-5.67,5.43-11.33,10.85-17,16.28Z"/>
    <path class="cls-2" d="M437.45,571.5c-1.99-21.79-1.95-46.68,2.26-73.67,17.51-112.18,95.05-183.15,127.04-209.26-18.16,17.94-41.51,45.05-61.26,82.44-26.24,49.69-34.53,95.62-37.41,124.67,37.04-36.96,74.07-73.93,111.11-110.89l-35.78-36.89,23.11-23.11,59.67,59.67c-63,62.56-126,125.11-189,187.67l.26-.63Z"/>
  </g>
  <g>
    <text class="cls-3" transform="translate(643.87 384.52)"><tspan x="0" y="0">DEB HAIR</tspan></text>
    <text class="cls-1" transform="translate(797.06 471.86)"><tspan x="0" y="0">CLINIC</tspan></text>
  </g>
</svg>