<?xml version="1.0" encoding="UTF-8"?>
<svg xmlns="http://www.w3.org/2000/svg" width="55" height="64" viewBox="0 0 55 64" fill="none">
  <path fill-rule="evenodd" clip-rule="evenodd" d="M24.701 1.76265C24.694 1.76649 24.6873 1.77021 24.6807 1.77381C24.5157 1.86404 24.4407 1.93494 24.4091 1.97243C24.4338 2.00257 24.4824 2.04926 24.5678 2.10151C24.679 2.16953 24.8197 2.22629 24.9645 2.25887L25.0308 2.2738L25.0919 2.30338C26.3146 2.89577 27.2667 3.42137 27.9825 3.89996C28.6907 4.37346 29.2074 4.8267 29.516 5.28689C29.8408 5.7713 29.9446 6.28272 29.779 6.79498C29.627 7.26551 29.2724 7.65306 28.8816 7.98226C28.4835 8.3176 27.9803 8.64682 27.4438 8.98126C27.2588 9.09661 27.0701 9.21243 26.8777 9.33051C26.4986 9.56314 26.1052 9.80457 25.6973 10.0687C24.4767 10.8589 23.2199 11.7942 22.234 13.0278C20.5181 15.175 19.8094 16.7228 19.6547 18.1696C19.4985 19.6301 19.8944 21.0715 20.5911 23.0608C21.7204 26.2853 22.2385 29.7655 22.36 31.1352C22.3627 31.147 22.3758 31.1894 22.4348 31.2466C22.5023 31.3121 22.6383 31.404 22.894 31.4696C23.4041 31.6005 24.3311 31.6101 25.8872 31.1636C26.3551 30.785 27.0692 30.2714 27.8165 29.8625C28.2165 29.6436 28.6412 29.4463 29.0533 29.3182C29.4556 29.1931 29.9021 29.1158 30.32 29.1981C31.6828 29.4665 32.3751 30.4796 32.565 31.0084C32.865 31.8409 33.1659 33.9939 32.2889 36.5271C32.0718 37.154 31.8106 37.7313 31.5097 38.2579C32.6875 40.1446 35.5107 44.0083 38.7086 46.446C40.5734 47.8676 41.9728 48.011 42.8799 47.7949C43.5862 47.6266 44.0573 47.228 44.2797 46.9142L44.281 46.9124L44.2822 46.9107C55.4521 31.3932 54.5173 19.3799 52.7871 15.4551L52.7753 15.4283L52.7663 15.4005C51.8648 12.6079 47.8325 6.15285 39.0094 3.36425C33.4028 1.59226 29.9342 1.13372 27.8125 1.14755C26.7545 1.15444 26.037 1.27877 25.5586 1.41299C25.1076 1.53952 24.8546 1.67841 24.701 1.76265ZM30.8052 39.309C29.6139 40.8294 28.0279 41.7516 26.2659 42.049L26.069 40.9183C27.7573 40.6333 29.2741 39.6613 30.3354 37.9611C30.6653 37.4328 30.9523 36.832 31.1861 36.1569C31.98 33.8637 31.6775 31.9764 31.467 31.3921L31.4666 31.3912C31.3776 31.1428 30.9558 30.4933 30.0915 30.3231C29.9523 30.2957 29.7258 30.3121 29.4042 30.4121C29.0925 30.5091 28.7426 30.6682 28.3825 30.8653C27.6623 31.2594 26.962 31.7712 26.5427 32.1189L26.4504 32.1955L26.3348 32.2296C24.617 32.737 23.4181 32.7896 22.6001 32.5797C21.77 32.3667 21.2738 31.8534 21.2026 31.2686L21.2014 31.2591L21.2006 31.2495C21.0874 29.9571 20.584 26.5597 19.4896 23.4348C18.7938 21.4478 18.3099 19.7888 18.4959 18.0495C18.6834 16.2965 19.5388 14.5451 21.3184 12.3184C22.4198 10.9401 23.7996 9.92422 25.0572 9.11009C25.4762 8.83881 25.8923 8.58339 26.2785 8.34634C26.4674 8.23039 26.6491 8.11883 26.8205 8.01197C27.3555 7.67847 27.7956 7.38726 28.1242 7.11048C28.4601 6.82756 28.6157 6.61129 28.6688 6.44709C28.7083 6.32461 28.7122 6.1704 28.5437 5.91903C28.3589 5.64346 27.9886 5.2908 27.328 4.84908C26.7043 4.43211 25.8566 3.95831 24.7377 3.41075C17.6998 4.40251 12.512 7.30415 9.38592 11.4136C6.23618 15.5541 5.12633 20.9899 6.40724 27.1082L6.45429 27.333L1.27909 35.5001C1.19062 35.7458 1.12362 36.1303 1.19568 36.5017C1.2667 36.8677 1.47032 37.2289 1.98087 37.4702C2.83907 37.8758 3.62881 38.2589 4.19006 39.093C4.73887 39.9087 5.02388 41.0815 5.16441 42.9495C5.21397 43.6082 5.23375 44.3118 5.25344 45.0119C5.26184 45.3105 5.27022 45.6085 5.28089 45.9021C5.31715 46.9005 5.37993 47.8718 5.55036 48.7645C5.88929 50.5398 6.62821 51.9009 8.3389 52.5325C9.3221 52.8956 10.2398 52.9499 11.2736 53.011C11.6 53.0303 11.9379 53.0503 12.293 53.0809C13.7507 53.2065 15.3267 53.5187 17.1112 54.7999C18.13 55.5314 19.8122 57.9119 18.7344 64L17.5865 63.803C18.6254 57.9349 16.9377 56.0952 16.4247 55.7269C14.8671 54.6086 13.5188 54.3382 12.1915 54.2238C11.9046 54.1991 11.61 54.182 11.309 54.1646C10.2411 54.1028 9.09335 54.0364 7.92979 53.6067C5.67913 52.7757 4.78183 50.9489 4.40527 48.9765C4.21796 47.9953 4.15317 46.9529 4.11649 45.9432C4.10503 45.6278 4.09632 45.3175 4.08776 45.0126C4.06847 44.3255 4.04994 43.6655 4.00245 43.0343C3.86448 41.2003 3.59248 40.2821 3.21874 39.7267C2.85745 39.1897 2.35912 38.9215 1.47667 38.5044C0.594703 38.0876 0.183292 37.3976 0.0512364 36.717C-0.0751834 36.0654 0.0529927 35.4333 0.211778 35.0353L0.231377 34.9862L5.21977 27.1139C3.95638 20.8172 5.11239 15.1177 8.45336 10.7258C11.614 6.57103 16.6835 3.64692 23.3533 2.46845C23.2074 2.1876 23.1741 1.84685 23.335 1.51125C23.4848 1.19896 23.7704 0.959356 24.1148 0.770943C24.1209 0.767601 24.1273 0.764139 24.1338 0.760563C24.3157 0.660858 24.6595 0.472342 25.2393 0.309663C25.8331 0.143063 26.6571 0.00780608 27.8048 0.000325977C30.0942 -0.0145962 33.6927 0.478965 39.3655 2.2719C48.5619 5.17848 52.8494 11.9095 53.8676 15.0251C55.7957 19.442 56.5429 31.861 45.234 47.5723C44.9132 48.0244 44.3546 48.502 43.5855 48.7809C43.5279 50.6846 43.5204 53.5097 43.6717 56.264C43.8359 59.2535 44.1835 62.058 44.8084 63.5451L43.7318 63.9837C43.0199 62.2898 42.6713 59.2942 42.5082 56.326C42.3619 53.6619 42.3622 50.9378 42.4132 49.0169C41.1913 49.0843 39.6988 48.6517 37.9953 47.3532C34.8851 44.9823 32.1561 41.3763 30.8052 39.309Z" fill="#064B3F"></path>
  <path d="M18.2997 7.89122C18.2997 8.19412 18.0815 8.43966 17.8123 8.43966C17.5432 8.43966 17.3249 8.19412 17.3249 7.89122C17.3249 7.58832 17.5432 7.34277 17.8123 7.34277C18.0815 7.34277 18.2997 7.58832 18.2997 7.89122Z" fill="#064B3F"></path>
  <path d="M19.8315 9.81078C19.8315 10.1137 19.6133 10.3592 19.3441 10.3592C19.0749 10.3592 18.8567 10.1137 18.8567 9.81078C18.8567 9.50788 19.0749 9.26233 19.3441 9.26233C19.6133 9.26233 19.8315 9.50788 19.8315 9.81078Z" fill="#064B3F"></path>
  <path d="M22.0227 9.27791C22.0227 9.58081 21.8045 9.82636 21.5353 9.82636C21.2662 9.82636 21.048 9.58081 21.048 9.27791C21.048 8.97501 21.2662 8.72946 21.5353 8.72946C21.8045 8.72946 22.0227 8.97501 22.0227 9.27791Z" fill="#064B3F"></path>
  <path d="M25.0812 7.84385C25.0812 8.14675 24.863 8.3923 24.5939 8.3923C24.3247 8.3923 24.1065 8.14675 24.1065 7.84385C24.1065 7.54095 24.3247 7.2954 24.5939 7.2954C24.863 7.2954 25.0812 7.54095 25.0812 7.84385Z" fill="#064B3F"></path>
  <path d="M27.5572 5.97958C27.5572 6.28248 27.339 6.52803 27.0698 6.52803C26.8006 6.52803 26.5824 6.28248 26.5824 5.97958C26.5824 5.67668 26.8006 5.43113 27.0698 5.43113C27.339 5.43113 27.5572 5.67668 27.5572 5.97958Z" fill="#064B3F"></path>
  <path d="M24.6443 4.97574C24.6443 5.27864 24.4261 5.52419 24.1569 5.52419C23.8878 5.52419 23.6695 5.27864 23.6695 4.97574C23.6695 4.67284 23.8878 4.42729 24.1569 4.42729C24.4261 4.42729 24.6443 4.67284 24.6443 4.97574Z" fill="#064B3F"></path>
  <path d="M22.1684 6.26639C22.1684 6.56929 21.9502 6.81484 21.681 6.81484C21.4118 6.81484 21.1936 6.56929 21.1936 6.26639C21.1936 5.96349 21.4118 5.71794 21.681 5.71794C21.9502 5.71794 22.1684 5.96349 22.1684 6.26639Z" fill="#064B3F"></path>
  <path d="M19.4011 6.26639C19.4011 6.56929 19.1829 6.81484 18.9138 6.81484C18.6446 6.81484 18.4264 6.56929 18.4264 6.26639C18.4264 5.96349 18.6446 5.71794 18.9138 5.71794C19.1829 5.71794 19.4011 5.96349 19.4011 6.26639Z" fill="#064B3F"></path>
  <path d="M19.6922 12.8273C19.6922 13.1302 19.474 13.3757 19.2048 13.3757C18.9357 13.3757 18.7175 13.1302 18.7175 12.8273C18.7175 12.5244 18.9357 12.2788 19.2048 12.2788C19.474 12.2788 19.6922 12.5244 19.6922 12.8273Z" fill="#064B3F"></path>
  <path d="M17.882 10.9077C17.882 11.2106 17.6637 11.4561 17.3946 11.4561C17.1254 11.4561 16.9072 11.2106 16.9072 10.9077C16.9072 10.6048 17.1254 10.3592 17.3946 10.3592C17.6637 10.3592 17.882 10.6048 17.882 10.9077Z" fill="#064B3F"></path>
  <path d="M16.2109 9.12523C16.2109 9.42813 15.9927 9.67367 15.7236 9.67367C15.4544 9.67367 15.2362 9.42813 15.2362 9.12523C15.2362 8.82233 15.4544 8.57678 15.7236 8.57678C15.9927 8.57678 16.2109 8.82233 16.2109 9.12523Z" fill="#064B3F"></path>
</svg>
