<?xml version="1.0" encoding="UTF-8"?>
<svg xmlns="http://www.w3.org/2000/svg" width="55" height="64" viewBox="0 0 55 64" fill="none">
  <path fill-rule="evenodd" clip-rule="evenodd" d="M24.0507 1.63035C19.9137 2.36098 17.0479 3.64485 16.4346 4.04245C16.3915 4.07037 16.3581 4.09477 16.3323 4.11539C16.4196 4.17805 16.5512 4.24764 16.72 4.31496C16.912 4.39157 17.1204 4.45276 17.3003 4.49377L17.3032 4.49444L17.3062 4.49514C18.27 4.72583 19.6267 5.36691 20.6094 6.56357C21.6132 7.78603 22.1902 9.54667 21.6208 11.9076C21.322 13.1469 21.0335 14.1797 20.7839 15.0733C20.7547 15.1777 20.7261 15.2802 20.698 15.3809C20.4282 16.3492 20.2157 17.1386 20.086 17.8768C19.8337 19.3139 19.8917 20.5739 20.5605 22.5082C21.6903 25.776 22.2086 29.3035 22.3299 30.6895C22.333 30.7051 22.3476 30.7535 22.4121 30.8169C22.4834 30.887 22.6239 30.9821 22.8832 31.0495C23.4007 31.184 24.3352 31.1924 25.8979 30.7376C26.3652 30.3543 27.0807 29.8327 27.8293 29.4178C28.2288 29.1964 28.6522 28.9972 29.0625 28.868C29.4633 28.7417 29.9055 28.6648 30.3176 28.747C31.6708 29.0169 32.3577 30.0359 32.5456 30.5658C32.844 31.4043 33.1452 33.5811 32.2691 36.1439C32.0506 36.7833 31.7872 37.3715 31.4837 37.9074C32.6588 39.8169 35.492 43.7487 38.7034 46.2282C40.5743 47.6728 41.9828 47.8217 42.9002 47.6003C43.6136 47.4282 44.0903 47.0203 44.3163 46.6972L44.3175 46.6955L44.3187 46.6939C55.5026 30.9571 54.5704 18.7684 52.8341 14.7791L52.8228 14.7531L52.8142 14.7261C51.9097 11.888 47.8681 5.33703 39.0279 2.50711C33.4917 0.734829 28.1691 0.903028 24.0507 1.63035ZM30.8101 38.9282C29.6191 40.4818 28.0284 41.4229 26.2604 41.7252L26.072 40.6291C27.7695 40.3389 29.2939 39.3489 30.3599 37.6194C30.6911 37.082 30.9792 36.4712 31.2137 35.7851C32.0103 33.4549 31.7075 31.5356 31.4948 30.9377L31.4945 30.9368C31.4032 30.6788 30.975 30.0122 30.0989 29.8374C29.9535 29.8084 29.722 29.8265 29.3983 29.9284C29.0841 30.0274 28.7322 30.1896 28.3709 30.3899C27.6483 30.7904 26.946 31.3103 26.5253 31.6636L26.437 31.7378L26.3264 31.7709C24.6091 32.2847 23.4143 32.3367 22.602 32.1256C21.7782 31.9115 21.2919 31.3976 21.2221 30.818L21.221 30.8088L21.2202 30.7995C21.1068 29.4878 20.6026 26.0413 19.5064 22.8707C18.7814 20.7739 18.7 19.3233 18.9877 17.6849C19.1281 16.8854 19.3555 16.0458 19.6236 15.0832C19.6519 14.982 19.6805 14.8792 19.7097 14.7749C19.9594 13.8809 20.2428 12.8665 20.5367 11.6475C21.0267 9.6159 20.5235 8.21416 19.7467 7.26814C19.0046 6.36439 17.9803 5.8397 17.2144 5.62078C14.8697 6.59504 11.5678 8.76341 9.1389 12.1759C6.66349 15.6536 5.08605 20.4327 6.36255 26.6084L6.40758 26.8262L1.23151 35.0998C1.14128 35.3522 1.07267 35.7481 1.14607 36.1312C1.2185 36.5093 1.42687 36.8827 1.94605 37.1313C2.80558 37.5427 3.58966 37.9286 4.14704 38.7676C4.69252 39.5888 4.9775 40.7721 5.11811 42.6651C5.16766 43.3323 5.18744 44.0446 5.20714 44.7541C5.21555 45.057 5.22395 45.3594 5.23464 45.6576C5.27095 46.6699 5.33383 47.6563 5.50479 48.5633C5.84486 50.3675 6.58794 51.7577 8.31209 52.4025C9.30012 52.772 10.2236 52.8273 11.2594 52.8894C11.5856 52.9089 11.9228 52.9291 12.2767 52.96C13.7328 53.087 15.3053 53.4027 17.0864 54.6979C18.0951 55.4314 19.7789 57.8328 18.701 64L17.6025 63.809C18.6432 57.855 16.9541 55.9779 16.4295 55.5965C14.8655 54.4591 13.5109 54.184 12.1795 54.0678C11.891 54.0426 11.5951 54.0252 11.2933 54.0075C10.2249 53.9449 9.08119 53.8778 7.92057 53.4437C5.67967 52.6057 4.78502 50.764 4.40893 48.7687C4.22181 47.776 4.15701 46.7208 4.1203 45.6973C4.10885 45.3781 4.10014 45.0638 4.09158 44.7548C4.07226 44.058 4.05368 43.3879 4.00611 42.7473C3.86795 40.8872 3.59541 39.9507 3.21748 39.3818C2.85146 38.8308 2.34626 38.5564 1.46353 38.1338C0.588895 37.7151 0.181665 37.0229 0.0508281 36.3399C-0.0746161 35.685 0.0526361 35.0491 0.210201 34.6491L0.228958 34.6015L5.2262 26.6138C3.96417 20.2168 5.6195 15.1992 8.22965 11.5322C10.4588 8.40034 13.3783 6.26017 15.7544 5.06804C15.6894 5.02553 15.6278 4.98046 15.5711 4.93277C15.3655 4.75999 15.1063 4.45104 15.1554 4.02046C15.2019 3.61181 15.5049 3.31878 15.8269 3.11006C16.6074 2.60413 19.6305 1.28165 23.8563 0.535348C28.1008 -0.214258 33.6151 -0.393571 39.3687 1.44828C48.5661 4.39255 52.852 11.211 53.8682 14.3623C55.7939 18.8287 56.5464 31.4106 45.2296 47.3352C44.9091 47.7926 44.3486 48.2771 43.5754 48.5571C43.5173 50.4879 43.5093 53.3615 43.6612 56.163C43.8255 59.1933 44.1735 62.0407 44.8009 63.5529L43.7706 63.9781C43.06 62.2654 42.711 59.2327 42.5478 56.223C42.4007 53.51 42.4016 50.7356 42.4534 48.7873C41.2327 48.8634 39.735 48.4311 38.0207 47.1075C34.8956 44.6946 32.1544 41.0173 30.8101 38.9282ZM16.2438 4.03677C16.2438 4.03677 16.2453 4.03838 16.2472 4.04158C16.2445 4.03836 16.2438 4.03677 16.2438 4.03677Z" fill="#064B3F"></path>
  <path d="M18.2912 7.12089C18.2912 7.42797 18.0727 7.67691 17.8033 7.67691C17.5339 7.67691 17.3155 7.42797 17.3155 7.12089C17.3155 6.81381 17.5339 6.56487 17.8033 6.56487C18.0727 6.56487 18.2912 6.81381 18.2912 7.12089Z" fill="#064B3F"></path>
  <path d="M19.8243 9.06696C19.8243 9.37404 19.6059 9.62298 19.3365 9.62298C19.0671 9.62298 18.8487 9.37404 18.8487 9.06696C18.8487 8.75988 19.0671 8.51094 19.3365 8.51094C19.6059 8.51094 19.8243 8.75988 19.8243 9.06696Z" fill="#064B3F"></path>
  <path d="M19.685 12.1251C19.685 12.4322 19.4666 12.6811 19.1971 12.6811C18.9277 12.6811 18.7093 12.4322 18.7093 12.1251C18.7093 11.818 18.9277 11.5691 19.1971 11.5691C19.4666 11.5691 19.685 11.818 19.685 12.1251Z" fill="#74AEFA"></path>
  <path d="M17.873 10.179C17.873 10.4861 17.6546 10.735 17.3852 10.735C17.1158 10.735 16.8973 10.4861 16.8973 10.179C16.8973 9.87192 17.1158 9.62298 17.3852 9.62298C17.6546 9.62298 17.873 9.87192 17.873 10.179Z" fill="#74AEFA"></path>
  <path d="M16.2004 8.37193C16.2004 8.67902 15.982 8.92796 15.7126 8.92796C15.4432 8.92796 15.2248 8.67902 15.2248 8.37193C15.2248 8.06485 15.4432 7.81591 15.7126 7.81591C15.982 7.81591 16.2004 8.06485 16.2004 8.37193Z" fill="#74AEFA"></path>
</svg>
