<?xml version="1.0" encoding="UTF-8"?>
<svg xmlns="http://www.w3.org/2000/svg" width="55" height="64" viewBox="0 0 55 64" fill="none">
  <path fill-rule="evenodd" clip-rule="evenodd" d="M41.4329 3.14881C41.6699 2.87929 41.9314 2.595 42.191 2.40703C42.3883 2.2641 42.6442 2.12909 42.9481 2.11631C43.2711 2.10273 43.5599 2.23014 43.803 2.44577C50.6013 8.47506 52.3147 10.8621 53.3387 14.0457C55.2909 18.5388 57.7702 30.7949 46.174 47.0468C45.8461 47.5126 45.2734 48.0043 44.4849 48.2874C44.4255 50.2515 44.4173 53.1752 44.5725 56.0255C44.7403 59.1084 45.0957 62.0045 45.7364 63.5424L44.7116 63.9785C43.9854 62.2354 43.6289 59.1493 43.4622 56.0872C43.3118 53.3248 43.3129 50.4997 43.3659 48.5171C42.1229 48.5986 40.5927 48.1635 38.8363 46.8128C35.6355 44.3514 32.8285 40.5956 31.4599 38.4736C30.2424 40.0648 28.6145 41.0259 26.8074 41.3336L26.6226 40.2255C28.3637 39.929 29.9235 38.9182 31.0126 37.1582C31.351 36.6114 31.6453 35.9899 31.8848 35.2921C32.6981 32.9223 32.3889 30.9711 32.1719 30.3637L32.1716 30.3628C32.0791 30.1025 31.641 29.419 30.7367 29.2393C30.5827 29.2088 30.3418 29.2283 30.0099 29.3325C29.6872 29.4337 29.3266 29.5994 28.957 29.8034C28.2177 30.2114 27.4996 30.741 27.0695 31.1008L26.9817 31.1742L26.8723 31.2068C25.1197 31.7291 23.9039 31.7808 23.0799 31.5675C22.2468 31.3519 21.7498 30.8335 21.6783 30.241L21.6771 30.2315L21.6763 30.222C21.5605 28.8879 21.0455 25.3819 19.9258 22.1565C19.2144 20.1073 18.7212 18.4001 18.9109 16.611C19.1 14.8272 19.9557 13.0439 21.7349 10.7837C21.7527 10.746 21.7719 10.7135 21.7883 10.6878C21.8288 10.6242 21.8777 10.5629 21.9257 10.5077C22.0237 10.3953 22.155 10.2666 22.3098 10.1312C22.621 9.85891 23.0573 9.53315 23.5799 9.22704C24.614 8.62133 26.058 8.05127 27.578 8.20881C27.9433 8.24667 28.3278 8.30761 28.7348 8.37211C29.9581 8.56596 31.3842 8.79193 33.0992 8.51994C35.2146 8.18443 37.7665 7.0704 40.6547 4.0118C36.1354 1.77533 25.9613 -1.00105 16.648 3.65267C11.7476 6.1013 9.10929 9.09643 7.6735 12.6716C6.22404 16.2809 5.97686 20.5326 5.97686 25.5538C5.97686 27.6906 4.71128 30.0132 3.5331 31.7319C2.93343 32.6067 2.33488 33.3552 1.88653 33.885C1.66209 34.1501 1.47463 34.3613 1.34259 34.5068C1.29089 34.5638 1.24766 34.6108 1.21401 34.647C1.13062 34.9039 1.07342 35.2801 1.14356 35.6448C1.21709 36.0271 1.42933 36.4097 1.96513 36.6651C2.84248 37.0834 3.64074 37.4746 4.20891 38.3265C4.76606 39.1618 5.05737 40.3663 5.20104 42.2929C5.25167 42.9718 5.27188 43.6968 5.29201 44.4187C5.3006 44.7268 5.30917 45.0344 5.32009 45.3376C5.35718 46.3675 5.4214 47.3706 5.59595 48.293C5.9427 50.1252 6.70076 51.5436 8.46951 52.2024C9.48201 52.5795 10.4296 52.6361 11.4885 52.6992C11.8212 52.7191 12.1649 52.7395 12.525 52.7708C14.0095 52.8999 15.612 53.22 17.4285 54.5356C18.4554 55.2794 20.1774 57.7224 19.0758 64L17.9809 63.8038C19.0434 57.7494 17.32 55.8396 16.7807 55.449C15.1801 54.2898 13.7927 54.0089 12.4297 53.8905C12.1338 53.8647 11.8308 53.847 11.522 53.829C10.4311 53.7652 9.26722 53.6972 8.08496 53.2568C5.80345 52.407 4.88858 50.5373 4.50378 48.5041C4.31256 47.4937 4.24636 46.4198 4.20886 45.3784C4.19716 45.0535 4.18826 44.7338 4.17951 44.4194C4.15978 43.7105 4.14081 43.0289 4.09222 42.3774C3.95114 40.4856 3.67294 39.5334 3.28684 38.9546C2.91177 38.3922 2.39304 38.1117 1.49068 37.6814C0.602717 37.2581 0.186124 36.5564 0.0520201 35.8592C-0.0763795 35.1916 0.0539224 34.5436 0.214996 34.1363L0.255691 34.0334L0.331895 33.954L0.331992 33.9539L0.33224 33.9536L0.334173 33.9516L0.342982 33.9423C0.351017 33.9338 0.363325 33.9207 0.379623 33.9033C0.41222 33.8684 0.460757 33.816 0.522955 33.7474C0.647385 33.6102 0.826295 33.4088 1.04151 33.1545C1.47246 32.6453 2.04631 31.9274 2.61905 31.092C3.78567 29.3901 4.86489 27.3173 4.86489 25.5538C4.86489 20.5315 5.1042 16.0812 6.64316 12.249C8.19578 8.3829 11.0478 5.19738 16.1551 2.64532C26.0901 -2.319 36.8767 0.798929 41.4329 3.14881ZM32.1341 37.4528C33.3349 39.3961 36.2288 43.3955 39.5096 45.9185C41.4228 47.3897 42.868 47.5448 43.814 47.3175C44.5482 47.141 45.0376 46.7233 45.2689 46.394L45.2701 46.3923L45.2713 46.3906C56.6593 30.4312 54.1053 18.5814 52.31 14.4731L52.2984 14.4466L52.2895 14.419C51.3668 11.5353 49.8732 9.3244 43.0696 3.2904C43.0297 3.25504 43.0055 3.24364 42.9977 3.24053C42.9958 3.23977 42.9945 3.23935 42.9937 3.23914C42.9879 3.23969 42.9408 3.24649 42.8386 3.32049C42.6488 3.45794 42.4545 3.67958 42.1958 3.97468C42.1265 4.05373 42.0526 4.13805 41.9729 4.22743C38.7396 7.85414 35.7974 9.22951 33.2715 9.6301C31.3639 9.93266 29.688 9.66537 28.4489 9.46773C28.0803 9.40895 27.7504 9.35633 27.4645 9.3267C26.2741 9.20331 25.0725 9.65165 24.1375 10.1993C23.6755 10.4699 23.2962 10.7546 23.0375 10.9809C22.9205 11.0833 22.8342 11.1684 22.7781 11.2303L22.7775 11.2654L22.6592 11.4147C20.9028 13.6319 20.1753 15.2328 20.0165 16.7307C19.8563 18.2419 20.2627 19.7325 20.9751 21.7845C22.1292 25.1091 22.6587 28.698 22.7827 30.1087C22.7857 30.1238 22.8006 30.1732 22.8673 30.2385C22.9417 30.3114 23.0877 30.4095 23.3558 30.4789C23.8904 30.6173 24.8507 30.6247 26.4508 30.1604C26.9277 29.7706 27.659 29.2394 28.424 28.8172C28.8315 28.5922 29.2629 28.3902 29.6802 28.2592C30.0884 28.1312 30.5357 28.0541 30.9512 28.1367C32.3242 28.4094 33.0251 29.4408 33.2178 29.9821C33.5228 30.8361 33.8306 33.0521 32.9354 35.6603C32.7123 36.3103 32.4436 36.9082 32.1341 37.4528Z" fill="#064B3F"></path>
  <path d="M18.6708 6.13132C18.6708 6.44374 18.4476 6.697 18.1724 6.697C17.8972 6.697 17.6741 6.44374 17.6741 6.13132C17.6741 5.8189 17.8972 5.56563 18.1724 5.56563C18.4476 5.56563 18.6708 5.8189 18.6708 6.13132Z" fill="#064B3F"></path>
  <path d="M20.2368 8.11126C20.2368 8.42368 20.0137 8.67694 19.7385 8.67694C19.4633 8.67694 19.2402 8.42368 19.2402 8.11126C19.2402 7.79884 19.4633 7.54558 19.7385 7.54558C20.0137 7.54558 20.2368 7.79884 20.2368 8.11126Z" fill="#064B3F"></path>
  <path d="M22.4773 7.56163C22.4773 7.87405 22.2542 8.12732 21.979 8.12732C21.7038 8.12732 21.4807 7.87405 21.4807 7.56163C21.4807 7.24921 21.7038 6.99595 21.979 6.99595C22.2542 6.99595 22.4773 7.24921 22.4773 7.56163Z" fill="#064B3F"></path>
  <path d="M25.6045 6.08252C25.6045 6.39493 25.3814 6.6482 25.1062 6.6482C24.8309 6.6482 24.6078 6.39493 24.6078 6.08252C24.6078 5.7701 24.8309 5.51683 25.1062 5.51683C25.3814 5.51683 25.6045 5.7701 25.6045 6.08252Z" fill="#064B3F"></path>
  <path d="M28.1359 4.15963C28.1359 4.47205 27.9128 4.72531 27.6376 4.72531C27.3624 4.72531 27.1393 4.47205 27.1393 4.15963C27.1393 3.84721 27.3624 3.59394 27.6376 3.59394C27.9128 3.59394 28.1359 3.84721 28.1359 4.15963Z" fill="#064B3F"></path>
  <path d="M29.4909 6.45384C29.4909 6.76626 29.2678 7.01952 28.9926 7.01952C28.7173 7.01952 28.4942 6.76626 28.4942 6.45384C28.4942 6.14142 28.7173 5.88815 28.9926 5.88815C29.2678 5.88815 29.4909 6.14142 29.4909 6.45384Z" fill="#064B3F"></path>
  <path d="M31.8538 3.78493C31.8538 4.09735 31.6307 4.35061 31.3555 4.35061C31.0803 4.35061 30.8572 4.09735 30.8572 3.78493C30.8572 3.47251 31.0803 3.21924 31.3555 3.21924C31.6307 3.21924 31.8538 3.47251 31.8538 3.78493Z" fill="#064B3F"></path>
  <path d="M32.8268 7.01572C32.8268 7.32814 32.6037 7.5814 32.3285 7.5814C32.0532 7.5814 31.8301 7.32814 31.8301 7.01572C31.8301 6.7033 32.0532 6.45003 32.3285 6.45003C32.6037 6.45003 32.8268 6.7033 32.8268 7.01572Z" fill="#064B3F"></path>
  <path d="M35.8847 6.45384C35.8847 6.76626 35.6616 7.01952 35.3864 7.01952C35.1112 7.01952 34.8881 6.76626 34.8881 6.45384C34.8881 6.14142 35.1112 5.88815 35.3864 5.88815C35.6616 5.88815 35.8847 6.14142 35.8847 6.45384Z" fill="#064B3F"></path>
  <path d="M38.1086 4.3468C38.1086 4.65922 37.8855 4.91249 37.6103 4.91249C37.3351 4.91249 37.112 4.65922 37.112 4.3468C37.112 4.03439 37.3351 3.78112 37.6103 3.78112C37.8855 3.78112 38.1086 4.03439 38.1086 4.3468Z" fill="#064B3F"></path>
  <path d="M34.9117 3.22305C34.9117 3.53547 34.6886 3.78874 34.4134 3.78874C34.1382 3.78874 33.9151 3.53547 33.9151 3.22305C33.9151 2.91063 34.1382 2.65737 34.4134 2.65737C34.6886 2.65737 34.9117 2.91063 34.9117 3.22305Z" fill="#064B3F"></path>
  <path d="M25.1577 3.12422C25.1577 3.43664 24.9346 3.6899 24.6594 3.6899C24.3842 3.6899 24.1611 3.43664 24.1611 3.12422C24.1611 2.8118 24.3842 2.55853 24.6594 2.55853C24.9346 2.55853 25.1577 2.8118 25.1577 3.12422Z" fill="#064B3F"></path>
  <path d="M22.6262 4.45546C22.6262 4.76788 22.4031 5.02115 22.1279 5.02115C21.8526 5.02115 21.6295 4.76788 21.6295 4.45546C21.6295 4.14304 21.8526 3.88978 22.1279 3.88978C22.4031 3.88978 22.6262 4.14304 22.6262 4.45546Z" fill="#064B3F"></path>
  <path d="M19.7969 4.45546C19.7969 4.76788 19.5738 5.02115 19.2986 5.02115C19.0234 5.02115 18.8003 4.76788 18.8003 4.45546C18.8003 4.14304 19.0234 3.88978 19.2986 3.88978C19.5738 3.88978 19.7969 4.14304 19.7969 4.45546Z" fill="#064B3F"></path>
  <path d="M20.0945 11.2225C20.0945 11.5349 19.8714 11.7882 19.5962 11.7882C19.321 11.7882 19.0979 11.5349 19.0979 11.2225C19.0979 10.9101 19.321 10.6568 19.5962 10.6568C19.8714 10.6568 20.0945 10.9101 20.0945 11.2225Z" fill="#064B3F"></path>
  <path d="M18.2435 9.24257C18.2435 9.55499 18.0204 9.80825 17.7452 9.80825C17.47 9.80825 17.2469 9.55499 17.2469 9.24257C17.2469 8.93015 17.47 8.67688 17.7452 8.67688C18.0204 8.67688 18.2435 8.93015 18.2435 9.24257Z" fill="#064B3F"></path>
  <path d="M16.5351 7.40417C16.5351 7.71659 16.312 7.96985 16.0368 7.96985C15.7616 7.96985 15.5385 7.71659 15.5385 7.40417C15.5385 7.09175 15.7616 6.83848 16.0368 6.83848C16.312 6.83848 16.5351 7.09175 16.5351 7.40417Z" fill="#064B3F"></path>
</svg>
