<?xml version="1.0" encoding="UTF-8"?>
<svg xmlns="http://www.w3.org/2000/svg" width="55" height="64" viewBox="0 0 55 64" fill="none">
  <path fill-rule="evenodd" clip-rule="evenodd" d="M48.9511 12.6075C37.582 -2.0563 22.5608 0.359891 16.335 3.49191C11.5273 5.94696 8.93867 8.94987 7.52989 12.5343C6.10756 16.1532 5.865 20.4163 5.865 25.4509C5.865 27.5934 4.6231 29.9223 3.46697 31.6456C2.87853 32.5227 2.29118 33.2732 1.85122 33.8044C1.63099 34.0703 1.44703 34.2819 1.31747 34.4279C1.26673 34.485 1.22431 34.5321 1.19129 34.5685C1.10946 34.826 1.05333 35.2033 1.12216 35.5689C1.19431 35.9522 1.40258 36.3358 1.92835 36.592C2.78928 37.0114 3.5726 37.4036 4.13014 38.2578C4.67687 39.0954 4.96272 40.3031 5.1037 42.2348C5.15339 42.9156 5.17322 43.6424 5.19297 44.3663C5.2014 44.6752 5.20981 44.9836 5.22053 45.2876C5.25692 46.3203 5.31994 47.3261 5.49122 48.2509C5.83148 50.0881 6.57536 51.5102 8.311 52.1708C9.30455 52.549 10.2344 52.6056 11.2735 52.669C11.6 52.6889 11.9372 52.7094 12.2906 52.7408C13.7473 52.8702 15.3198 53.1912 17.1023 54.5103C18.11 55.2561 19.7998 57.7056 18.7188 64L17.6444 63.8032C18.687 57.7327 16.9958 55.8178 16.4667 55.4262C14.896 54.2638 13.5346 53.9822 12.1971 53.8634C11.9067 53.8376 11.6094 53.8199 11.3064 53.8018C10.2359 53.7378 9.09379 53.6696 7.93364 53.2281C5.69483 52.376 4.79709 50.5013 4.41949 48.4626C4.23185 47.4495 4.16688 46.3727 4.13009 45.3286C4.11861 45.0028 4.10987 44.6822 4.10129 44.367C4.08193 43.6562 4.06331 42.9728 4.01563 42.3195C3.87719 40.4227 3.6042 39.468 3.22533 38.8876C2.85727 38.3237 2.34825 38.0424 1.46278 37.611C0.591437 37.1865 0.18264 36.483 0.0510466 35.7839C-0.0749501 35.1146 0.0529132 34.4648 0.210973 34.0564L0.250906 33.9532L0.325683 33.8736L0.325778 33.8735L0.326022 33.8732L0.327919 33.8712L0.336563 33.8619C0.344448 33.8534 0.356526 33.8403 0.372518 33.8228C0.404505 33.7878 0.452134 33.7352 0.513168 33.6664C0.635269 33.5289 0.81083 33.3269 1.02202 33.072C1.44491 32.5614 2.00801 31.8416 2.57003 31.0039C3.71482 29.2975 4.77385 27.2191 4.77385 25.4509C4.77385 20.4152 5.00867 15.9529 6.51883 12.1106C8.0424 8.23409 10.841 5.04004 15.8528 2.48115L15.8542 2.48043L15.8556 2.47972C22.5844 -0.906224 38.96 -3.43654 50.8375 13.2983C50.8376 13.2984 50.8377 13.2986 50.8378 13.2988C50.8556 13.3238 50.8758 13.352 50.8981 13.3833C51.8057 14.6536 56.3366 20.9954 54.6121 28.6885C53.2327 34.8419 49.3413 40.7151 47.5181 42.9544C47.2508 43.529 46.8378 44.3842 46.4278 45.167C46.2151 45.5731 46.0003 45.9652 45.8053 46.2905C45.6324 46.5788 45.4505 46.8569 45.2849 47.0371C44.9594 47.4934 44.4064 47.9687 43.6523 48.2453C43.5941 50.2148 43.586 53.1462 43.7383 56.0041C43.903 59.0953 44.2517 61.9992 44.8804 63.5412L43.8748 63.9784C43.1622 62.2307 42.8124 59.1363 42.6488 56.066C42.5012 53.2962 42.5023 50.4635 42.5543 48.4757C41.3346 48.5574 39.833 48.1211 38.1095 46.7668C34.9686 44.2988 32.2141 40.533 30.8711 38.4053C29.6764 40.0007 28.079 40.9644 26.3057 41.2729L26.1244 40.1618C27.8328 39.8646 29.3635 38.851 30.4322 37.0864C30.7643 36.5381 31.053 35.915 31.2881 35.2153C32.0862 32.8392 31.7827 30.8827 31.5698 30.2737L31.5695 30.2728C31.4787 30.0118 31.0488 29.3264 30.1614 29.1463C30.0103 29.1157 29.774 29.1353 29.4483 29.2397C29.1316 29.3412 28.7777 29.5073 28.4151 29.7119C27.6896 30.121 26.985 30.652 26.5629 31.0127L26.4767 31.0864L26.3693 31.1191C24.6495 31.6428 23.4565 31.6946 22.648 31.4808C21.8305 31.2645 21.3428 30.7447 21.2725 30.1507L21.2714 30.1412L21.2706 30.1316C21.157 28.7939 20.6516 25.2786 19.5529 22.0446C18.8548 19.9899 18.3709 18.2781 18.557 16.4842C18.7426 14.695 19.5828 12.9063 21.3299 10.639C21.3565 10.5831 21.3839 10.5442 21.3963 10.5265L21.3968 10.5258C21.4423 10.461 21.4957 10.4029 21.5449 10.3544C21.6453 10.2552 21.7769 10.1482 21.9274 10.0403C22.2311 9.82234 22.6532 9.57108 23.157 9.34053C24.1593 8.88181 25.5384 8.48075 26.9937 8.63487L27.0584 8.64173L27.1197 8.6641C29.5846 9.56313 33.5429 10.8636 37.3965 11.8401C39.3235 12.3283 41.2155 12.7333 42.8766 12.9674C44.5233 13.1995 45.8955 13.2563 46.8419 13.0866C47.3189 12.9019 48.0456 12.6871 48.7517 12.6218C48.8176 12.6158 48.8841 12.6109 48.9511 12.6075ZM31.5327 37.3818C32.7111 39.3302 35.5508 43.3404 38.7702 45.8701C40.6475 47.3453 42.0657 47.5008 42.994 47.2729C43.7145 47.0959 44.1947 46.6771 44.4217 46.3469L44.4497 46.3061L44.4843 46.271C44.5542 46.2002 44.6888 46.0121 44.8776 45.6973C45.0569 45.3983 45.2603 45.0276 45.468 44.631C45.8831 43.8385 46.3039 42.9646 46.564 42.4029L46.5945 42.3372L46.6401 42.2816C48.3833 40.1585 52.2122 34.3981 53.549 28.4344C55.1578 21.2577 50.9002 15.2866 50.0099 14.0381C49.991 14.0116 49.9737 13.9873 49.9579 13.9651C49.91 13.8976 49.8128 13.8228 49.6126 13.7745C49.4112 13.726 49.1503 13.7163 48.849 13.7441C48.2468 13.7998 47.5952 13.9944 47.1839 14.1578L47.1366 14.1765L47.0869 14.186C45.9614 14.4001 44.4285 14.3234 42.7291 14.0838C41.0164 13.8425 39.0842 13.4279 37.1365 12.9344C33.2733 11.9555 29.3141 10.657 26.8193 9.7495C25.6367 9.63981 24.4795 9.96773 23.5991 10.3706C23.1537 10.5745 22.7927 10.7915 22.5499 10.9656C22.4647 11.0268 22.3988 11.0792 22.3513 11.1207L22.3512 11.1243L22.2352 11.274C20.5116 13.4971 19.7977 15.1023 19.6419 16.6042C19.4847 18.1195 19.8835 19.614 20.5825 21.6715C21.7151 25.005 22.2346 28.6036 22.3563 30.018C22.3593 30.0332 22.3739 30.0827 22.4393 30.1482C22.5123 30.2212 22.6556 30.3196 22.9187 30.3892C23.4433 30.528 24.3856 30.5354 25.9557 30.0699C26.4237 29.679 27.1414 29.1464 27.892 28.723C28.2919 28.4974 28.7152 28.2949 29.1248 28.1636C29.5253 28.0352 29.9642 27.958 30.3719 28.0407C31.7192 28.3142 32.407 29.3483 32.5961 29.8911C32.8955 30.7474 33.1974 32.9693 32.319 35.5845C32.1001 36.2362 31.8364 36.8357 31.5327 37.3818Z" fill="#064B3F"></path>
  <path d="M18.3213 5.97648C18.3213 6.28973 18.1024 6.54367 17.8323 6.54367C17.5623 6.54367 17.3433 6.28973 17.3433 5.97648C17.3433 5.66322 17.5623 5.40928 17.8323 5.40928C18.1024 5.40928 18.3213 5.66322 18.3213 5.97648Z" fill="#064B3F"></path>
  <path d="M19.8581 7.96172C19.8581 8.27497 19.6392 8.52891 19.3691 8.52891C19.099 8.52891 18.8801 8.27497 18.8801 7.96172C18.8801 7.64846 19.099 7.39452 19.3691 7.39452C19.6392 7.39452 19.8581 7.64846 19.8581 7.96172Z" fill="#064B3F"></path>
  <path d="M22.0567 7.41062C22.0567 7.72387 21.8377 7.97781 21.5677 7.97781C21.2976 7.97781 21.0787 7.72387 21.0787 7.41062C21.0787 7.09736 21.2976 6.84342 21.5677 6.84342C21.8377 6.84342 22.0567 7.09736 22.0567 7.41062Z" fill="#064B3F"></path>
  <path d="M25.1253 5.92754C25.1253 6.2408 24.9064 6.49474 24.6363 6.49474C24.3662 6.49474 24.1473 6.2408 24.1473 5.92754C24.1473 5.61429 24.3662 5.36034 24.6363 5.36034C24.9064 5.36034 25.1253 5.61429 25.1253 5.92754Z" fill="#064B3F"></path>
  <path d="M27.6094 3.99951C27.6094 4.31276 27.3904 4.56671 27.1204 4.56671C26.8503 4.56671 26.6314 4.31276 26.6314 3.99951C26.6314 3.68625 26.8503 3.43231 27.1204 3.43231C27.3904 3.43231 27.6094 3.68625 27.6094 3.99951Z" fill="#064B3F"></path>
  <path d="M28.9389 6.29986C28.9389 6.61312 28.72 6.86706 28.4499 6.86706C28.1799 6.86706 27.961 6.61312 27.961 6.29986C27.961 5.98661 28.1799 5.73266 28.4499 5.73266C28.72 5.73266 28.9389 5.98661 28.9389 6.29986Z" fill="#064B3F"></path>
  <path d="M31.1213 3.4949C31.1213 3.80816 30.9023 4.0621 30.6323 4.0621C30.3622 4.0621 30.1433 3.80816 30.1433 3.4949C30.1433 3.18165 30.3622 2.9277 30.6323 2.9277C30.9023 2.9277 31.1213 3.18165 31.1213 3.4949Z" fill="#064B3F"></path>
  <path d="M40.5325 10.2555C40.5325 10.5687 40.3136 10.8227 40.0435 10.8227C39.7734 10.8227 39.5545 10.5687 39.5545 10.2555C39.5545 9.9422 39.7734 9.68826 40.0435 9.68826C40.3136 9.68826 40.5325 9.9422 40.5325 10.2555Z" fill="#064B3F"></path>
  <path d="M43.5332 9.26954C43.5332 9.5828 43.3142 9.83674 43.0442 9.83674C42.7741 9.83674 42.5552 9.5828 42.5552 9.26954C42.5552 8.95629 42.7741 8.70234 43.0442 8.70234C43.3142 8.70234 43.5332 8.95629 43.5332 9.26954Z" fill="#064B3F"></path>
  <path d="M45.9883 11.5231C45.9883 11.8363 45.7694 12.0903 45.4993 12.0903C45.2292 12.0903 45.0103 11.8363 45.0103 11.5231C45.0103 11.2098 45.2292 10.9559 45.4993 10.9559C45.7694 10.9559 45.9883 11.2098 45.9883 11.5231Z" fill="#064B3F"></path>
  <path d="M32.8944 7.15687C32.8944 7.47012 32.6755 7.72407 32.4054 7.72407C32.1353 7.72407 31.9164 7.47012 31.9164 7.15687C31.9164 6.84361 32.1353 6.58967 32.4054 6.58967C32.6755 6.58967 32.8944 6.84361 32.8944 7.15687Z" fill="#064B3F"></path>
  <path d="M36.4407 5.32588C36.4407 5.63914 36.2217 5.89308 35.9517 5.89308C35.6816 5.89308 35.4627 5.63914 35.4627 5.32588C35.4627 5.01263 35.6816 4.75869 35.9517 4.75869C36.2217 4.75869 36.4407 5.01263 36.4407 5.32588Z" fill="#064B3F"></path>
  <path d="M40.6689 6.73433C40.6689 7.04759 40.45 7.30153 40.1799 7.30153C39.9098 7.30153 39.6909 7.04759 39.6909 6.73433C39.6909 6.42108 39.9098 6.16713 40.1799 6.16713C40.45 6.16713 40.6689 6.42108 40.6689 6.73433Z" fill="#064B3F"></path>
  <path d="M36.9862 8.70616C36.9862 9.01942 36.7673 9.27336 36.4972 9.27336C36.2272 9.27336 36.0082 9.01942 36.0082 8.70616C36.0082 8.39291 36.2272 8.13896 36.4972 8.13896C36.7673 8.13896 36.9862 8.39291 36.9862 8.70616Z" fill="#064B3F"></path>
  <path d="M24.6869 2.96133C24.6869 3.27458 24.4679 3.52853 24.1979 3.52853C23.9278 3.52853 23.7089 3.27458 23.7089 2.96133C23.7089 2.64807 23.9278 2.39413 24.1979 2.39413C24.4679 2.39413 24.6869 2.64807 24.6869 2.96133Z" fill="#064B3F"></path>
  <path d="M22.2027 4.29613C22.2027 4.60939 21.9838 4.86333 21.7137 4.86333C21.4437 4.86333 21.2247 4.60939 21.2247 4.29613C21.2247 3.98288 21.4437 3.72894 21.7137 3.72894C21.9838 3.72894 22.2027 3.98288 22.2027 4.29613Z" fill="#064B3F"></path>
  <path d="M19.4264 4.29613C19.4264 4.60939 19.2075 4.86333 18.9374 4.86333C18.6673 4.86333 18.4484 4.60939 18.4484 4.29613C18.4484 3.98288 18.6673 3.72894 18.9374 3.72894C19.2075 3.72894 19.4264 3.98288 19.4264 4.29613Z" fill="#064B3F"></path>
  <path d="M19.7184 11.0813C19.7184 11.3945 19.4995 11.6485 19.2294 11.6485C18.9594 11.6485 18.7405 11.3945 18.7405 11.0813C18.7405 10.768 18.9594 10.5141 19.2294 10.5141C19.4995 10.5141 19.7184 10.768 19.7184 11.0813Z" fill="#064B3F"></path>
  <path d="M17.9021 9.09605C17.9021 9.40931 17.6832 9.66325 17.4131 9.66325C17.143 9.66325 16.9241 9.40931 16.9241 9.09605C16.9241 8.7828 17.143 8.52885 17.4131 8.52885C17.6832 8.52885 17.9021 8.7828 17.9021 9.09605Z" fill="#064B3F"></path>
  <path d="M16.2257 7.25273C16.2257 7.56599 16.0067 7.81993 15.7367 7.81993C15.4666 7.81993 15.2477 7.56599 15.2477 7.25273C15.2477 6.93948 15.4666 6.68553 15.7367 6.68553C16.0067 6.68553 16.2257 6.93948 16.2257 7.25273Z" fill="#064B3F"></path>
</svg>
